%TF.GenerationSoftware,KiCad,Pcbnew,10.0.4*%
%TF.CreationDate,2026-09-20T08:23:58+05:30*%
%TF.ProjectId,CAR TX,43415220-5458-42e6-9b69-6361645f7063,rev?*%
%TF.SameCoordinates,Original*%
%TF.FileFunction,Copper,L2,Bot*%
%TF.FilePolarity,Positive*%
%FSLAX46Y46*%
G04 Gerber Fmt 4.6, Leading zero omitted, Abs format (unit mm)*
G04 Created by KiCad (PCBNEW 10.0.4) date 2026-09-20 08:23:58*
%MOMM*%
%LPD*%
G01*
G04 APERTURE LIST*
%TA.AperFunction,ComponentPad*%
%ADD10R,1.700000X1.700000*%
%TD*%
%TA.AperFunction,ComponentPad*%
%ADD11C,1.700000*%
%TD*%
%TA.AperFunction,ComponentPad*%
%ADD12O,1.350000X1.700000*%
%TD*%
%TA.AperFunction,ComponentPad*%
%ADD13O,1.100000X1.500000*%
%TD*%
%TA.AperFunction,HeatsinkPad*%
%ADD14C,0.500000*%
%TD*%
%TA.AperFunction,HeatsinkPad*%
%ADD15R,3.400000X3.400000*%
%TD*%
%TA.AperFunction,HeatsinkPad*%
%ADD16R,1.800000X4.400000*%
%TD*%
%TA.AperFunction,ComponentPad*%
%ADD17C,5.600000*%
%TD*%
%TA.AperFunction,ViaPad*%
%ADD18C,0.450000*%
%TD*%
%TA.AperFunction,ViaPad*%
%ADD19C,0.600000*%
%TD*%
%TA.AperFunction,Conductor*%
%ADD20C,0.450000*%
%TD*%
%TA.AperFunction,Conductor*%
%ADD21C,0.600000*%
%TD*%
%TA.AperFunction,Conductor*%
%ADD22C,0.250000*%
%TD*%
G04 APERTURE END LIST*
D10*
%TO.P,J3,1,Pin_1_1*%
%TO.N,+3V3*%
X214172500Y-89160000D03*
D11*
%TO.P,J3,2,Pin_2_2*%
%TO.N,GND*%
X214172500Y-91700000D03*
%TO.P,J3,3,Pin_3_3*%
%TO.N,/MCU/RUN*%
X214172500Y-94240000D03*
%TO.P,J3,4,Pin_4_4*%
%TO.N,/MCU/SWD*%
X214172500Y-96780000D03*
%TO.P,J3,5,Pin_5_5*%
%TO.N,/MCU/SWCLK*%
X214172500Y-99320000D03*
%TD*%
D12*
%TO.P,J2,SH,Shield_SH*%
%TO.N,GND*%
X204545000Y-52195000D03*
D13*
X204235000Y-55195000D03*
X199395000Y-55195000D03*
D12*
X199085000Y-52195000D03*
%TD*%
D10*
%TO.P,J1,1,Pin_1_1*%
%TO.N,Net-(D1-A)*%
X162470000Y-107660000D03*
D11*
%TO.P,J1,2,Pin_2_2*%
%TO.N,GND*%
X165010000Y-107660000D03*
%TD*%
D14*
%TO.P,U4,61,GND_61*%
%TO.N,GND*%
X203070000Y-77970000D03*
X203070000Y-79420000D03*
X203070000Y-80870000D03*
X204520000Y-77970000D03*
X204520000Y-79420000D03*
D15*
X204520000Y-79420000D03*
D14*
X204520000Y-80870000D03*
X205970000Y-77970000D03*
X205970000Y-79420000D03*
X205970000Y-80870000D03*
%TD*%
%TO.P,U1,9,EP_9*%
%TO.N,GND*%
X187507500Y-102695000D03*
X187507500Y-103995000D03*
X187507500Y-105295000D03*
X187507500Y-106595000D03*
D16*
X188157500Y-104645000D03*
D14*
X188807500Y-102695000D03*
X188807500Y-103995000D03*
X188807500Y-105295000D03*
X188807500Y-106595000D03*
%TD*%
D17*
%TO.P,H2,1*%
%TO.N,N/C*%
X215000000Y-105000000D03*
%TD*%
%TO.P,H1,1*%
%TO.N,N/C*%
X165000000Y-55000000D03*
%TD*%
D18*
%TO.N,+1V1*%
X202384998Y-78620000D03*
X204520000Y-81545002D03*
X209790000Y-79020000D03*
X198930000Y-78620000D03*
X206040000Y-73440000D03*
X206040000Y-77294998D03*
X206645002Y-79020000D03*
X204520000Y-84740000D03*
D19*
%TO.N,GND*%
X179540000Y-99040000D03*
X162750000Y-67100000D03*
X218320000Y-101150000D03*
X188660000Y-93490000D03*
X163630000Y-94970000D03*
X201230000Y-67070000D03*
X191050000Y-52450000D03*
X169750000Y-107400000D03*
X166650000Y-59620000D03*
X185040000Y-52510000D03*
X166070000Y-64520000D03*
X206060000Y-107330000D03*
X198200000Y-90280000D03*
X200030000Y-75040000D03*
X206410000Y-68080000D03*
X216670000Y-51430000D03*
X204210000Y-95130000D03*
X211680000Y-70740000D03*
X169630000Y-96920000D03*
X168840000Y-94390000D03*
X194670000Y-107080000D03*
X195190000Y-75200000D03*
X182350000Y-98900000D03*
X198640000Y-60210000D03*
X215800000Y-71190000D03*
X183770000Y-70370000D03*
X192120000Y-71420000D03*
X175860000Y-103450000D03*
X210000000Y-103820000D03*
X217970000Y-57290000D03*
X183550000Y-61750000D03*
X194140000Y-87270000D03*
X188390000Y-97600000D03*
X195990000Y-85300000D03*
X210490000Y-55080000D03*
X183270000Y-56860000D03*
X195530000Y-54510000D03*
X207230000Y-54580000D03*
X200400000Y-63550000D03*
X185470000Y-97850000D03*
X193920000Y-68350000D03*
X162740000Y-96810000D03*
X200820000Y-91170000D03*
X204000000Y-62100000D03*
X194250000Y-78660000D03*
X209070000Y-51980000D03*
X216630000Y-60530000D03*
X216010000Y-66000000D03*
D18*
X201140000Y-87360000D03*
D19*
%TO.N,+3V3*%
X209000000Y-65500000D03*
X210000000Y-60500000D03*
X209000000Y-66500000D03*
X210000000Y-65500000D03*
X163240000Y-75970000D03*
X210000000Y-66500000D03*
X186010000Y-91300000D03*
X210000000Y-64500000D03*
X197835000Y-74145000D03*
X210000000Y-61500000D03*
X209000000Y-62500000D03*
X208000000Y-60500000D03*
X186740000Y-78180000D03*
X186010000Y-95855000D03*
X209000000Y-61500000D03*
X210000000Y-62500000D03*
X218670000Y-93120000D03*
X209000000Y-60500000D03*
X209000000Y-64500000D03*
X207000000Y-60500000D03*
X207000000Y-66500000D03*
X208000000Y-66500000D03*
%TO.N,/MCU/RUN*%
X208880000Y-94240000D03*
%TD*%
%TO.N,+1V1*%
D20*
X204520000Y-84740000D02*
X204520000Y-81545002D01*
X198930000Y-78620000D02*
X202384998Y-78620000D01*
X209790000Y-79020000D02*
X206645002Y-79020000D01*
X206040000Y-73440000D02*
X206040000Y-77294998D01*
%TO.N,+3V3*%
D21*
X186740000Y-86900000D02*
X186010000Y-87630000D01*
X189070000Y-78180000D02*
X193105000Y-74145000D01*
X183360000Y-78180000D02*
X186740000Y-78180000D01*
X186740000Y-78180000D02*
X189070000Y-78180000D01*
X186010000Y-87630000D02*
X186010000Y-91300000D01*
X186010000Y-91300000D02*
X186010000Y-95855000D01*
X181150000Y-75970000D02*
X183360000Y-78180000D01*
X193105000Y-74145000D02*
X197835000Y-74145000D01*
X217890000Y-89160000D02*
X214172500Y-89160000D01*
X218670000Y-89940000D02*
X217890000Y-89160000D01*
X163240000Y-75970000D02*
X181150000Y-75970000D01*
X186740000Y-78180000D02*
X186740000Y-86900000D01*
X218670000Y-93120000D02*
X218670000Y-89940000D01*
%TO.N,/MCU/RUN*%
D22*
X208880000Y-94240000D02*
X214172500Y-94240000D01*
%TD*%
%TA.AperFunction,Conductor*%
%TO.N,GND*%
G36*
X219392606Y-50505523D02*
G01*
X219407604Y-50509927D01*
X219422594Y-50519557D01*
X219439675Y-50524567D01*
X219466355Y-50547672D01*
X219467542Y-50549041D01*
X219495018Y-50603902D01*
X219496663Y-50611460D01*
X219499500Y-50637831D01*
X219499500Y-89320229D01*
X219494476Y-89355167D01*
X219491289Y-89366020D01*
X219481651Y-89381015D01*
X219476631Y-89398117D01*
X219463156Y-89409793D01*
X219453514Y-89424797D01*
X219437298Y-89432201D01*
X219423829Y-89443874D01*
X219406178Y-89446412D01*
X219389957Y-89453820D01*
X219372313Y-89451283D01*
X219354671Y-89453821D01*
X219320808Y-89443879D01*
X219313829Y-89440692D01*
X219277657Y-89415578D01*
X218400297Y-88538217D01*
X218400291Y-88538212D01*
X218400290Y-88538211D01*
X218269191Y-88450613D01*
X218269190Y-88450612D01*
X218269185Y-88450609D01*
X218269172Y-88450602D01*
X218269165Y-88450598D01*
X218123502Y-88390264D01*
X218123471Y-88390257D01*
X217968847Y-88359500D01*
X217968845Y-88359500D01*
X217968842Y-88359500D01*
X215662681Y-88359500D01*
X215662676Y-88359499D01*
X215662674Y-88359500D01*
X215627740Y-88354475D01*
X215612741Y-88350070D01*
X215553971Y-88312300D01*
X215550484Y-88308276D01*
X215524609Y-88259860D01*
X215524198Y-88258361D01*
X215520494Y-88238825D01*
X215516591Y-88202517D01*
X215516591Y-88202516D01*
X215466297Y-88067671D01*
X215466293Y-88067664D01*
X215380047Y-87952455D01*
X215380044Y-87952452D01*
X215380042Y-87952450D01*
X215322116Y-87909086D01*
X215264835Y-87866206D01*
X215264832Y-87866204D01*
X215264830Y-87866203D01*
X215264828Y-87866202D01*
X215129982Y-87815908D01*
X215129983Y-87815908D01*
X215070383Y-87809501D01*
X215070381Y-87809500D01*
X215070373Y-87809500D01*
X215070364Y-87809500D01*
X215069341Y-87809500D01*
X213274623Y-87809500D01*
X213272692Y-87809659D01*
X213271045Y-87809885D01*
X213215016Y-87815908D01*
X213080166Y-87866204D01*
X213080165Y-87866205D01*
X212964956Y-87952450D01*
X212964950Y-87952456D01*
X212878705Y-88067665D01*
X212878703Y-88067668D01*
X212828407Y-88202516D01*
X212822001Y-88262116D01*
X212822000Y-88262139D01*
X212822000Y-90057876D01*
X212822159Y-90059806D01*
X212822385Y-90061454D01*
X212828407Y-90117482D01*
X212856190Y-90191971D01*
X212878702Y-90252328D01*
X212878703Y-90252330D01*
X212878704Y-90252332D01*
X212878705Y-90252333D01*
X212964950Y-90367542D01*
X212964952Y-90367544D01*
X212964955Y-90367547D01*
X213080164Y-90453793D01*
X213080171Y-90453797D01*
X213125118Y-90470561D01*
X213215017Y-90504091D01*
X213215016Y-90504091D01*
X213277932Y-90510856D01*
X213277890Y-90511240D01*
X213301405Y-90515260D01*
X213327531Y-90522930D01*
X213380281Y-90554227D01*
X213916350Y-91090296D01*
X213949835Y-91151619D01*
X213944851Y-91221311D01*
X213902979Y-91277244D01*
X213890673Y-91285362D01*
X213865496Y-91299898D01*
X213865490Y-91299903D01*
X213772403Y-91392990D01*
X213772398Y-91392996D01*
X213757862Y-91418173D01*
X213707293Y-91466387D01*
X213638685Y-91479607D01*
X213573822Y-91453637D01*
X213562796Y-91443850D01*
X213057228Y-90938282D01*
X213057227Y-90938282D01*
X213017880Y-90992438D01*
X212921403Y-91181784D01*
X212855742Y-91383865D01*
X212854298Y-91392990D01*
X212822500Y-91593753D01*
X212822500Y-91806246D01*
X212848360Y-91969519D01*
X212854215Y-92006485D01*
X212854216Y-92006493D01*
X212855742Y-92016133D01*
X212890386Y-92122754D01*
X212921404Y-92218217D01*
X213017874Y-92407548D01*
X213017875Y-92407550D01*
X213053174Y-92456137D01*
X213057228Y-92461716D01*
X213562797Y-91956147D01*
X213624119Y-91922663D01*
X213693811Y-91927647D01*
X213749744Y-91969519D01*
X213757863Y-91981828D01*
X213772396Y-92007000D01*
X213772399Y-92007004D01*
X213772401Y-92007007D01*
X213865493Y-92100099D01*
X213890669Y-92114634D01*
X213938884Y-92165202D01*
X213952106Y-92233809D01*
X213926138Y-92298673D01*
X213916349Y-92309702D01*
X213410821Y-92815229D01*
X213410782Y-92815269D01*
X213410782Y-92815270D01*
X213464952Y-92854626D01*
X213464951Y-92854626D01*
X213466615Y-92855474D01*
X213474357Y-92861058D01*
X213476990Y-92864448D01*
X213486950Y-92871469D01*
X213496368Y-92880363D01*
X213531592Y-92940700D01*
X213528604Y-93010505D01*
X213492432Y-93064229D01*
X213485429Y-93070297D01*
X213468444Y-93081776D01*
X213468831Y-93082407D01*
X213464672Y-93084955D01*
X213292716Y-93209886D01*
X213142390Y-93360212D01*
X213017448Y-93532182D01*
X213014905Y-93536334D01*
X213014464Y-93536064D01*
X212997759Y-93559760D01*
X212986040Y-93572168D01*
X212928269Y-93606723D01*
X212915422Y-93610198D01*
X212883045Y-93614500D01*
X209440180Y-93614500D01*
X209405245Y-93609477D01*
X209373436Y-93600137D01*
X209339482Y-93584263D01*
X209259184Y-93530609D01*
X209259172Y-93530602D01*
X209259168Y-93530600D01*
X209259160Y-93530596D01*
X209113502Y-93470264D01*
X209113471Y-93470257D01*
X208958847Y-93439500D01*
X208958845Y-93439500D01*
X208958842Y-93439500D01*
X208801158Y-93439500D01*
X208801155Y-93439500D01*
X208801153Y-93439500D01*
X208646527Y-93470257D01*
X208646496Y-93470264D01*
X208500833Y-93530598D01*
X208500824Y-93530603D01*
X208500807Y-93530613D01*
X208369708Y-93618211D01*
X208369707Y-93618212D01*
X208369701Y-93618217D01*
X208258217Y-93729701D01*
X208258212Y-93729707D01*
X208258211Y-93729708D01*
X208170613Y-93860807D01*
X208170603Y-93860824D01*
X208170598Y-93860833D01*
X208110264Y-94006496D01*
X208110257Y-94006527D01*
X208079500Y-94161150D01*
X208079500Y-94161153D01*
X208079500Y-94318846D01*
X208079500Y-94318848D01*
X208079499Y-94318848D01*
X208110257Y-94473471D01*
X208110264Y-94473502D01*
X208170598Y-94619165D01*
X208170603Y-94619174D01*
X208170613Y-94619191D01*
X208258211Y-94750290D01*
X208258212Y-94750291D01*
X208258217Y-94750297D01*
X208369701Y-94861781D01*
X208369707Y-94861786D01*
X208369711Y-94861789D01*
X208500814Y-94949390D01*
X208500827Y-94949397D01*
X208646498Y-95009735D01*
X208646503Y-95009737D01*
X208801153Y-95040499D01*
X208801156Y-95040500D01*
X208801158Y-95040500D01*
X208958844Y-95040500D01*
X208958845Y-95040499D01*
X209113497Y-95009737D01*
X209259179Y-94949394D01*
X209259184Y-94949390D01*
X209259187Y-94949389D01*
X209316469Y-94911114D01*
X209338641Y-94896299D01*
X209370469Y-94881071D01*
X209402111Y-94871163D01*
X209439161Y-94865500D01*
X212881689Y-94865500D01*
X212916625Y-94870523D01*
X212933006Y-94875333D01*
X212990017Y-94911113D01*
X212998946Y-94920982D01*
X213014667Y-94943797D01*
X213014899Y-94943656D01*
X213017451Y-94947821D01*
X213142386Y-95119782D01*
X213142390Y-95119786D01*
X213292713Y-95270109D01*
X213464682Y-95395050D01*
X213464690Y-95395054D01*
X213465193Y-95395363D01*
X213466674Y-95396496D01*
X213468622Y-95397912D01*
X213468586Y-95397960D01*
X213485534Y-95410934D01*
X213495815Y-95420643D01*
X213531041Y-95480983D01*
X213528052Y-95550789D01*
X213491883Y-95604507D01*
X213484727Y-95610708D01*
X213468314Y-95622723D01*
X213464690Y-95624943D01*
X213292710Y-95749892D01*
X213142392Y-95900210D01*
X213017449Y-96072182D01*
X212920945Y-96261580D01*
X212855252Y-96463759D01*
X212822000Y-96673707D01*
X212822000Y-96886291D01*
X212855252Y-97096239D01*
X212920945Y-97298418D01*
X213014032Y-97481111D01*
X213017451Y-97487820D01*
X213142390Y-97659786D01*
X213292713Y-97810109D01*
X213464682Y-97935050D01*
X213464690Y-97935054D01*
X213465193Y-97935363D01*
X213466674Y-97936496D01*
X213468622Y-97937912D01*
X213468586Y-97937960D01*
X213485534Y-97950934D01*
X213495815Y-97960643D01*
X213531041Y-98020983D01*
X213528052Y-98090789D01*
X213491883Y-98144507D01*
X213484727Y-98150708D01*
X213468314Y-98162723D01*
X213464690Y-98164943D01*
X213292710Y-98289892D01*
X213142392Y-98440210D01*
X213017449Y-98612182D01*
X212920945Y-98801580D01*
X212855252Y-99003759D01*
X212822000Y-99213707D01*
X212822000Y-99426291D01*
X212855252Y-99636239D01*
X212920945Y-99838418D01*
X213014032Y-100021111D01*
X213017451Y-100027820D01*
X213142390Y-100199786D01*
X213142392Y-100199788D01*
X213292716Y-100350112D01*
X213464669Y-100475042D01*
X213464677Y-100475047D01*
X213464679Y-100475048D01*
X213464681Y-100475049D01*
X213464682Y-100475050D01*
X213464700Y-100475060D01*
X213464942Y-100475182D01*
X213654088Y-100571557D01*
X213856257Y-100637246D01*
X214066213Y-100670500D01*
X214066214Y-100670500D01*
X214278786Y-100670500D01*
X214278787Y-100670500D01*
X214488743Y-100637246D01*
X214690912Y-100571557D01*
X214880316Y-100475051D01*
X214902289Y-100459086D01*
X215052286Y-100350109D01*
X215052286Y-100350108D01*
X215052344Y-100350066D01*
X215053105Y-100349290D01*
X215202604Y-100199792D01*
X215202606Y-100199788D01*
X215202609Y-100199786D01*
X215327548Y-100027820D01*
X215327547Y-100027820D01*
X215327551Y-100027816D01*
X215327553Y-100027810D01*
X215347945Y-99999744D01*
X215356230Y-99971529D01*
X215424057Y-99838412D01*
X215489746Y-99636243D01*
X215523000Y-99426287D01*
X215523000Y-99213713D01*
X215489746Y-99003757D01*
X215424057Y-98801588D01*
X215327551Y-98612184D01*
X215327549Y-98612181D01*
X215327548Y-98612179D01*
X215327202Y-98611703D01*
X215327200Y-98611699D01*
X215202612Y-98440216D01*
X215052282Y-98289886D01*
X214880324Y-98164953D01*
X214879758Y-98164606D01*
X214878127Y-98163357D01*
X214876401Y-98162103D01*
X214876432Y-98162059D01*
X214859460Y-98149062D01*
X214849183Y-98139357D01*
X214813957Y-98079017D01*
X214816945Y-98009212D01*
X214853113Y-97955493D01*
X214860283Y-97949281D01*
X214876687Y-97937275D01*
X214880316Y-97935051D01*
X214880317Y-97935050D01*
X214902289Y-97919086D01*
X215052286Y-97810109D01*
X215052287Y-97810106D01*
X215052290Y-97810105D01*
X215052292Y-97810104D01*
X215052293Y-97810102D01*
X215052347Y-97810063D01*
X215053105Y-97809290D01*
X215202604Y-97659792D01*
X215202606Y-97659788D01*
X215202609Y-97659786D01*
X215327548Y-97487820D01*
X215327547Y-97487820D01*
X215327551Y-97487816D01*
X215327553Y-97487810D01*
X215347945Y-97459744D01*
X215356230Y-97431529D01*
X215424057Y-97298412D01*
X215489746Y-97096243D01*
X215523000Y-96886287D01*
X215523000Y-96673713D01*
X215489746Y-96463757D01*
X215424057Y-96261588D01*
X215327551Y-96072184D01*
X215327549Y-96072181D01*
X215327548Y-96072179D01*
X215327202Y-96071703D01*
X215327200Y-96071699D01*
X215202612Y-95900216D01*
X215052282Y-95749886D01*
X214880324Y-95624953D01*
X214879758Y-95624606D01*
X214878127Y-95623357D01*
X214876401Y-95622103D01*
X214876432Y-95622059D01*
X214859460Y-95609062D01*
X214849183Y-95599357D01*
X214813957Y-95539017D01*
X214816945Y-95469212D01*
X214853113Y-95415493D01*
X214860283Y-95409281D01*
X214876687Y-95397275D01*
X214880316Y-95395051D01*
X214880317Y-95395050D01*
X214902289Y-95379086D01*
X215052286Y-95270109D01*
X215052287Y-95270106D01*
X215052290Y-95270105D01*
X215052292Y-95270104D01*
X215052293Y-95270102D01*
X215052347Y-95270063D01*
X215053105Y-95269290D01*
X215202604Y-95119792D01*
X215202606Y-95119788D01*
X215202609Y-95119786D01*
X215260214Y-95040499D01*
X215326403Y-94949397D01*
X215326406Y-94949399D01*
X215326423Y-94949367D01*
X215327551Y-94947816D01*
X215424057Y-94758412D01*
X215489746Y-94556243D01*
X215523000Y-94346287D01*
X215523000Y-94133713D01*
X215489746Y-93923757D01*
X215424057Y-93721588D01*
X215327551Y-93532184D01*
X215327549Y-93532181D01*
X215327548Y-93532179D01*
X215327202Y-93531703D01*
X215327200Y-93531699D01*
X215202612Y-93360216D01*
X215052288Y-93209892D01*
X215052286Y-93209890D01*
X214880317Y-93084949D01*
X214880312Y-93084946D01*
X214879084Y-93084194D01*
X214858742Y-93068624D01*
X214848627Y-93059071D01*
X214813406Y-92998734D01*
X214816396Y-92928929D01*
X214852566Y-92875210D01*
X214859622Y-92869096D01*
X214876037Y-92857083D01*
X214880042Y-92854628D01*
X214880055Y-92854622D01*
X214901619Y-92838953D01*
X214928358Y-92829412D01*
X214934217Y-92815269D01*
X214428649Y-92309702D01*
X214395164Y-92248379D01*
X214400148Y-92178688D01*
X214442019Y-92122754D01*
X214454322Y-92114639D01*
X214479507Y-92100099D01*
X214572599Y-92007007D01*
X214587134Y-91981830D01*
X214637699Y-91933616D01*
X214706305Y-91920391D01*
X214771171Y-91946358D01*
X214782202Y-91956149D01*
X215287769Y-92461717D01*
X215287769Y-92461716D01*
X215287770Y-92461717D01*
X215287770Y-92461716D01*
X215301238Y-92456137D01*
X215307455Y-92434967D01*
X215311454Y-92429118D01*
X215327121Y-92407555D01*
X215327125Y-92407548D01*
X215423595Y-92218217D01*
X215489257Y-92016130D01*
X215489257Y-92016127D01*
X215522500Y-91806246D01*
X215522500Y-91593753D01*
X215508760Y-91507007D01*
X215490784Y-91393511D01*
X215490783Y-91393505D01*
X215490783Y-91393506D01*
X215489256Y-91383865D01*
X215461973Y-91299898D01*
X215423595Y-91181782D01*
X215327124Y-90992449D01*
X215287770Y-90938282D01*
X215287769Y-90938282D01*
X215287768Y-90938282D01*
X214782202Y-91443849D01*
X214720879Y-91477334D01*
X214651187Y-91472350D01*
X214595254Y-91430478D01*
X214587134Y-91418169D01*
X214572599Y-91392993D01*
X214479507Y-91299901D01*
X214479504Y-91299899D01*
X214479500Y-91299896D01*
X214454328Y-91285363D01*
X214406113Y-91234796D01*
X214392891Y-91166189D01*
X214418859Y-91101324D01*
X214428633Y-91090312D01*
X214959528Y-90559416D01*
X214987772Y-90538274D01*
X215010864Y-90525666D01*
X215067098Y-90511313D01*
X215067076Y-90510900D01*
X215067071Y-90510854D01*
X215067073Y-90510853D01*
X215067064Y-90510676D01*
X215070267Y-90510504D01*
X215070289Y-90510499D01*
X215070371Y-90510499D01*
X215070372Y-90510499D01*
X215129983Y-90504091D01*
X215264831Y-90453796D01*
X215380046Y-90367546D01*
X215466296Y-90252331D01*
X215516591Y-90117483D01*
X215519657Y-90088961D01*
X215528383Y-90054773D01*
X215534366Y-90040328D01*
X215578203Y-89985930D01*
X215582587Y-89982887D01*
X215633491Y-89962340D01*
X215635037Y-89962090D01*
X215654832Y-89960500D01*
X217489230Y-89960500D01*
X217524162Y-89965521D01*
X217549406Y-89972934D01*
X217602152Y-90004230D01*
X217820573Y-90222651D01*
X217841723Y-90250903D01*
X217854331Y-90273992D01*
X217869500Y-90333421D01*
X217869500Y-93198846D01*
X217869500Y-93198848D01*
X217869499Y-93198848D01*
X217900257Y-93353471D01*
X217900264Y-93353502D01*
X217960598Y-93499165D01*
X217960603Y-93499174D01*
X217960613Y-93499191D01*
X218048211Y-93630290D01*
X218048212Y-93630291D01*
X218048217Y-93630297D01*
X218159701Y-93741781D01*
X218159707Y-93741786D01*
X218159711Y-93741789D01*
X218290814Y-93829390D01*
X218290827Y-93829397D01*
X218436498Y-93889735D01*
X218436503Y-93889737D01*
X218591153Y-93920499D01*
X218591156Y-93920500D01*
X218591158Y-93920500D01*
X218748844Y-93920500D01*
X218748845Y-93920499D01*
X218903497Y-93889737D01*
X219049179Y-93829394D01*
X219180289Y-93741789D01*
X219208983Y-93713095D01*
X219275216Y-93646862D01*
X219275220Y-93646860D01*
X219303459Y-93625719D01*
X219313391Y-93620296D01*
X219330813Y-93616505D01*
X219336538Y-93613380D01*
X219343041Y-93613845D01*
X219381660Y-93605443D01*
X219447125Y-93629857D01*
X219488999Y-93685789D01*
X219489001Y-93685793D01*
X219491682Y-93692981D01*
X219499500Y-93736315D01*
X219499500Y-109357670D01*
X219499499Y-109357676D01*
X219499500Y-109357679D01*
X219494475Y-109392614D01*
X219490070Y-109407612D01*
X219452327Y-109466355D01*
X219452292Y-109466385D01*
X219452291Y-109466387D01*
X219452289Y-109466387D01*
X219450958Y-109467542D01*
X219396097Y-109495018D01*
X219388539Y-109496663D01*
X219362168Y-109499500D01*
X160642330Y-109499500D01*
X160642325Y-109499499D01*
X160642323Y-109499500D01*
X160607389Y-109494475D01*
X160592390Y-109490070D01*
X160533644Y-109452327D01*
X160533615Y-109452293D01*
X160533614Y-109452293D01*
X160533613Y-109452291D01*
X160532457Y-109450958D01*
X160504977Y-109396083D01*
X160503332Y-109388521D01*
X160500500Y-109362168D01*
X160500500Y-106762139D01*
X161119500Y-106762139D01*
X161119500Y-108557876D01*
X161119659Y-108559806D01*
X161119885Y-108561454D01*
X161125907Y-108617482D01*
X161153346Y-108691049D01*
X161176202Y-108752328D01*
X161176206Y-108752335D01*
X161212263Y-108800500D01*
X161262450Y-108867542D01*
X161262452Y-108867544D01*
X161262455Y-108867547D01*
X161377664Y-108953793D01*
X161377671Y-108953797D01*
X161512517Y-109004091D01*
X161512516Y-109004091D01*
X161519444Y-109004835D01*
X161572127Y-109010500D01*
X163367872Y-109010499D01*
X163427483Y-109004091D01*
X163562331Y-108953796D01*
X163677546Y-108867546D01*
X163763796Y-108752331D01*
X163814091Y-108617483D01*
X163817836Y-108582652D01*
X163820499Y-108557888D01*
X163820499Y-108557882D01*
X163820500Y-108557873D01*
X163820499Y-108557816D01*
X163820504Y-108557796D01*
X163820677Y-108554565D01*
X163820855Y-108554574D01*
X163820856Y-108554568D01*
X163820977Y-108554581D01*
X163821141Y-108554589D01*
X163822127Y-108549628D01*
X163821209Y-108544540D01*
X163826489Y-108527677D01*
X163829935Y-108510341D01*
X163832472Y-108504212D01*
X163833940Y-108501525D01*
X163834802Y-108498587D01*
X163837343Y-108492453D01*
X163848778Y-108478260D01*
X163864224Y-108452219D01*
X164400297Y-107916147D01*
X164461619Y-107882663D01*
X164531311Y-107887647D01*
X164587244Y-107929519D01*
X164595363Y-107941828D01*
X164609896Y-107967000D01*
X164609899Y-107967004D01*
X164609901Y-107967007D01*
X164702993Y-108060099D01*
X164728169Y-108074634D01*
X164776384Y-108125202D01*
X164789606Y-108193809D01*
X164763638Y-108258673D01*
X164753849Y-108269702D01*
X164248282Y-108775268D01*
X164248282Y-108775269D01*
X164248282Y-108775270D01*
X164302449Y-108814624D01*
X164491782Y-108911095D01*
X164491784Y-108911096D01*
X164693866Y-108976756D01*
X164693867Y-108976756D01*
X164693870Y-108976757D01*
X164903754Y-109010000D01*
X165116245Y-109010000D01*
X165116246Y-109010000D01*
X165229050Y-108992132D01*
X165316487Y-108978284D01*
X165316493Y-108978283D01*
X165326127Y-108976757D01*
X165326130Y-108976757D01*
X165528217Y-108911095D01*
X165717554Y-108814622D01*
X165719976Y-108812862D01*
X165739121Y-108798953D01*
X165765858Y-108789412D01*
X165771717Y-108775269D01*
X165266149Y-108269702D01*
X165232664Y-108208379D01*
X165237648Y-108138688D01*
X165279519Y-108082754D01*
X165291822Y-108074639D01*
X165317007Y-108060099D01*
X165410099Y-107967007D01*
X165424634Y-107941830D01*
X165475199Y-107893616D01*
X165543805Y-107880391D01*
X165608671Y-107906358D01*
X165619702Y-107916149D01*
X166125269Y-108421717D01*
X166125269Y-108421716D01*
X166125270Y-108421717D01*
X166125270Y-108421716D01*
X166138738Y-108416137D01*
X166144955Y-108394967D01*
X166148954Y-108389118D01*
X166164621Y-108367555D01*
X166164622Y-108367554D01*
X166261095Y-108178217D01*
X166326757Y-107976130D01*
X166326757Y-107976127D01*
X166360000Y-107766246D01*
X166360000Y-107553753D01*
X166346260Y-107467007D01*
X166328284Y-107353511D01*
X166328283Y-107353505D01*
X166328283Y-107353506D01*
X166326756Y-107343865D01*
X166299473Y-107259898D01*
X166261095Y-107141782D01*
X166164624Y-106952449D01*
X166125270Y-106898282D01*
X166125269Y-106898282D01*
X166125268Y-106898282D01*
X165619702Y-107403849D01*
X165558379Y-107437334D01*
X165488687Y-107432350D01*
X165432754Y-107390478D01*
X165424634Y-107378169D01*
X165410099Y-107352993D01*
X165317007Y-107259901D01*
X165317004Y-107259899D01*
X165317000Y-107259896D01*
X165291828Y-107245363D01*
X165243613Y-107194796D01*
X165230391Y-107126189D01*
X165256359Y-107061324D01*
X165266135Y-107050310D01*
X165741337Y-106575107D01*
X187407500Y-106575107D01*
X187407500Y-106575109D01*
X187407500Y-106614891D01*
X187422724Y-106651645D01*
X187450855Y-106679776D01*
X187487609Y-106695000D01*
X187527389Y-106695000D01*
X187527391Y-106695000D01*
X187564145Y-106679776D01*
X187592276Y-106651645D01*
X187607500Y-106614891D01*
X187607500Y-106575109D01*
X187607499Y-106575107D01*
X188707500Y-106575107D01*
X188707500Y-106575109D01*
X188707500Y-106614891D01*
X188722724Y-106651645D01*
X188750855Y-106679776D01*
X188787609Y-106695000D01*
X188827389Y-106695000D01*
X188827391Y-106695000D01*
X188864145Y-106679776D01*
X188892276Y-106651645D01*
X188907500Y-106614891D01*
X188907500Y-106575109D01*
X188892276Y-106538355D01*
X188864145Y-106510224D01*
X188852451Y-106505380D01*
X188827392Y-106495000D01*
X188827391Y-106495000D01*
X188787609Y-106495000D01*
X188787607Y-106495000D01*
X188750854Y-106510224D01*
X188722724Y-106538354D01*
X188707500Y-106575107D01*
X187607499Y-106575107D01*
X187592276Y-106538355D01*
X187564145Y-106510224D01*
X187552451Y-106505380D01*
X187527392Y-106495000D01*
X187527391Y-106495000D01*
X187487609Y-106495000D01*
X187487607Y-106495000D01*
X187450854Y-106510224D01*
X187422724Y-106538354D01*
X187407500Y-106575107D01*
X165741337Y-106575107D01*
X165771716Y-106544728D01*
X165717550Y-106505375D01*
X165697188Y-106495000D01*
X165528214Y-106408902D01*
X165326130Y-106343242D01*
X165116251Y-106310000D01*
X165116246Y-106310000D01*
X164903754Y-106310000D01*
X164903749Y-106310000D01*
X164703513Y-106341715D01*
X164703505Y-106341715D01*
X164703506Y-106341716D01*
X164693865Y-106343242D01*
X164491784Y-106408903D01*
X164302438Y-106505380D01*
X164248282Y-106544727D01*
X164248282Y-106544728D01*
X164753850Y-107050296D01*
X164787335Y-107111619D01*
X164782351Y-107181311D01*
X164740479Y-107237244D01*
X164728173Y-107245362D01*
X164702996Y-107259898D01*
X164702990Y-107259903D01*
X164609903Y-107352990D01*
X164609898Y-107352996D01*
X164595362Y-107378173D01*
X164544793Y-107426387D01*
X164476185Y-107439607D01*
X164411322Y-107413637D01*
X164400296Y-107403850D01*
X163869425Y-106872979D01*
X163869420Y-106872974D01*
X163848273Y-106844723D01*
X163835666Y-106821634D01*
X163821313Y-106765401D01*
X163820900Y-106765423D01*
X163820854Y-106765429D01*
X163820853Y-106765426D01*
X163820676Y-106765436D01*
X163820504Y-106762230D01*
X163820499Y-106762209D01*
X163820499Y-106762129D01*
X163820498Y-106762123D01*
X163820497Y-106762116D01*
X163814091Y-106702517D01*
X163811287Y-106695000D01*
X163785884Y-106626890D01*
X163781408Y-106614889D01*
X163763798Y-106567673D01*
X163763793Y-106567664D01*
X163746623Y-106544728D01*
X163677555Y-106452465D01*
X163677549Y-106452458D01*
X163677547Y-106452455D01*
X163677544Y-106452452D01*
X163677542Y-106452450D01*
X163619369Y-106408902D01*
X163562335Y-106366206D01*
X163562332Y-106366204D01*
X163562330Y-106366203D01*
X163562328Y-106366202D01*
X163427482Y-106315908D01*
X163427483Y-106315908D01*
X163367883Y-106309501D01*
X163367881Y-106309500D01*
X163367873Y-106309500D01*
X163367864Y-106309500D01*
X163366841Y-106309500D01*
X161572123Y-106309500D01*
X161570192Y-106309659D01*
X161568545Y-106309885D01*
X161512516Y-106315908D01*
X161377666Y-106366204D01*
X161377665Y-106366205D01*
X161262456Y-106452450D01*
X161262450Y-106452456D01*
X161176205Y-106567665D01*
X161176203Y-106567668D01*
X161125907Y-106702516D01*
X161119501Y-106762116D01*
X161119500Y-106762139D01*
X160500500Y-106762139D01*
X160500500Y-105275107D01*
X187407500Y-105275107D01*
X187407500Y-105275109D01*
X187407500Y-105314891D01*
X187422724Y-105351645D01*
X187450855Y-105379776D01*
X187487609Y-105395000D01*
X187527389Y-105395000D01*
X187527391Y-105395000D01*
X187564145Y-105379776D01*
X187592276Y-105351645D01*
X187607500Y-105314891D01*
X187607500Y-105275109D01*
X187607499Y-105275107D01*
X188707500Y-105275107D01*
X188707500Y-105275109D01*
X188707500Y-105314891D01*
X188722724Y-105351645D01*
X188750855Y-105379776D01*
X188787609Y-105395000D01*
X188827389Y-105395000D01*
X188827391Y-105395000D01*
X188864145Y-105379776D01*
X188892276Y-105351645D01*
X188907500Y-105314891D01*
X188907500Y-105275109D01*
X188892276Y-105238355D01*
X188864145Y-105210224D01*
X188827392Y-105195000D01*
X188827391Y-105195000D01*
X188787609Y-105195000D01*
X188787607Y-105195000D01*
X188750854Y-105210224D01*
X188722724Y-105238354D01*
X188707500Y-105275107D01*
X187607499Y-105275107D01*
X187592276Y-105238355D01*
X187564145Y-105210224D01*
X187527392Y-105195000D01*
X187527391Y-105195000D01*
X187487609Y-105195000D01*
X187487607Y-105195000D01*
X187450854Y-105210224D01*
X187422724Y-105238354D01*
X187407500Y-105275107D01*
X160500500Y-105275107D01*
X160500500Y-104813293D01*
X211199500Y-104813293D01*
X211199500Y-105186707D01*
X211204587Y-105238355D01*
X211236099Y-105558311D01*
X211236100Y-105558316D01*
X211236102Y-105558332D01*
X211308949Y-105924552D01*
X211417347Y-106281896D01*
X211488795Y-106454385D01*
X211560243Y-106626876D01*
X211560250Y-106626890D01*
X211664342Y-106821634D01*
X211736264Y-106956192D01*
X211736273Y-106956207D01*
X211943726Y-107266681D01*
X211943736Y-107266695D01*
X212180627Y-107555348D01*
X212444650Y-107819371D01*
X212444655Y-107819375D01*
X212444656Y-107819376D01*
X212733309Y-108056267D01*
X212733315Y-108056271D01*
X213043796Y-108263729D01*
X213373117Y-108439754D01*
X213718106Y-108582653D01*
X214075440Y-108691049D01*
X214441678Y-108763899D01*
X214813293Y-108800500D01*
X214813296Y-108800500D01*
X215186704Y-108800500D01*
X215186707Y-108800500D01*
X215558322Y-108763899D01*
X215924560Y-108691049D01*
X216281894Y-108582653D01*
X216626883Y-108439754D01*
X216956204Y-108263729D01*
X217266685Y-108056271D01*
X217555338Y-107819381D01*
X217819381Y-107555338D01*
X218056271Y-107266685D01*
X218263729Y-106956204D01*
X218439754Y-106626883D01*
X218582653Y-106281894D01*
X218691049Y-105924560D01*
X218763899Y-105558322D01*
X218800500Y-105186707D01*
X218800500Y-104813293D01*
X218763899Y-104441678D01*
X218691049Y-104075440D01*
X218582653Y-103718106D01*
X218439754Y-103373117D01*
X218263729Y-103043796D01*
X218056271Y-102733315D01*
X218056267Y-102733309D01*
X218056262Y-102733303D01*
X217819371Y-102444650D01*
X217555348Y-102180627D01*
X217266695Y-101943736D01*
X217266694Y-101943735D01*
X217266690Y-101943732D01*
X216956210Y-101736275D01*
X216956209Y-101736274D01*
X216956204Y-101736271D01*
X216956199Y-101736268D01*
X216956192Y-101736264D01*
X216628388Y-101561050D01*
X216627378Y-101560492D01*
X216626890Y-101560249D01*
X216626849Y-101560231D01*
X216281899Y-101417348D01*
X216195268Y-101391069D01*
X216072119Y-101353712D01*
X216072118Y-101353711D01*
X215929169Y-101310348D01*
X215929148Y-101310342D01*
X215924560Y-101308951D01*
X215924557Y-101308950D01*
X215924556Y-101308950D01*
X215919515Y-101307947D01*
X215919494Y-101307942D01*
X215558337Y-101236103D01*
X215558326Y-101236101D01*
X215558324Y-101236101D01*
X215558311Y-101236099D01*
X215277293Y-101208422D01*
X215186707Y-101199500D01*
X215186704Y-101199500D01*
X214813296Y-101199500D01*
X214813293Y-101199500D01*
X214795537Y-101201248D01*
X214729513Y-101207750D01*
X214729514Y-101207751D01*
X214441688Y-101236099D01*
X214441679Y-101236100D01*
X214441666Y-101236102D01*
X214075446Y-101308949D01*
X213718102Y-101417347D01*
X213373152Y-101560231D01*
X213373123Y-101560243D01*
X213373109Y-101560250D01*
X213216784Y-101643806D01*
X213043806Y-101736264D01*
X213043791Y-101736273D01*
X212733317Y-101943726D01*
X212733303Y-101943736D01*
X212444650Y-102180627D01*
X212180627Y-102444650D01*
X211943736Y-102733303D01*
X211943728Y-102733315D01*
X211736273Y-103043791D01*
X211736264Y-103043806D01*
X211560243Y-103373123D01*
X211417347Y-103718102D01*
X211308949Y-104075446D01*
X211236102Y-104441666D01*
X211236100Y-104441679D01*
X211236099Y-104441688D01*
X211207751Y-104729514D01*
X211199500Y-104813293D01*
X160500500Y-104813293D01*
X160500500Y-103975107D01*
X187407500Y-103975107D01*
X187407500Y-103975109D01*
X187407500Y-104014891D01*
X187422724Y-104051645D01*
X187450855Y-104079776D01*
X187487609Y-104095000D01*
X187527389Y-104095000D01*
X187527391Y-104095000D01*
X187564145Y-104079776D01*
X187592276Y-104051645D01*
X187607500Y-104014891D01*
X187607500Y-103975109D01*
X187607499Y-103975107D01*
X188707500Y-103975107D01*
X188707500Y-103975109D01*
X188707500Y-104014891D01*
X188722724Y-104051645D01*
X188750855Y-104079776D01*
X188787609Y-104095000D01*
X188827389Y-104095000D01*
X188827391Y-104095000D01*
X188864145Y-104079776D01*
X188892276Y-104051645D01*
X188907500Y-104014891D01*
X188907500Y-103975109D01*
X188892276Y-103938355D01*
X188864145Y-103910224D01*
X188827392Y-103895000D01*
X188827391Y-103895000D01*
X188787609Y-103895000D01*
X188787607Y-103895000D01*
X188750854Y-103910224D01*
X188722724Y-103938354D01*
X188707500Y-103975107D01*
X187607499Y-103975107D01*
X187592276Y-103938355D01*
X187564145Y-103910224D01*
X187527392Y-103895000D01*
X187527391Y-103895000D01*
X187487609Y-103895000D01*
X187487607Y-103895000D01*
X187450854Y-103910224D01*
X187422724Y-103938354D01*
X187407500Y-103975107D01*
X160500500Y-103975107D01*
X160500500Y-102675107D01*
X187407500Y-102675107D01*
X187407500Y-102675109D01*
X187407500Y-102714891D01*
X187422724Y-102751645D01*
X187450855Y-102779776D01*
X187487609Y-102795000D01*
X187527389Y-102795000D01*
X187527391Y-102795000D01*
X187564145Y-102779776D01*
X187592276Y-102751645D01*
X187607500Y-102714891D01*
X187607500Y-102675109D01*
X187607499Y-102675107D01*
X188707500Y-102675107D01*
X188707500Y-102675109D01*
X188707500Y-102714891D01*
X188722724Y-102751645D01*
X188750855Y-102779776D01*
X188787609Y-102795000D01*
X188827389Y-102795000D01*
X188827391Y-102795000D01*
X188864145Y-102779776D01*
X188892276Y-102751645D01*
X188907500Y-102714891D01*
X188907500Y-102675109D01*
X188892276Y-102638355D01*
X188864145Y-102610224D01*
X188827392Y-102595000D01*
X188827391Y-102595000D01*
X188787609Y-102595000D01*
X188787607Y-102595000D01*
X188750854Y-102610224D01*
X188722724Y-102638354D01*
X188707500Y-102675107D01*
X187607499Y-102675107D01*
X187592276Y-102638355D01*
X187564145Y-102610224D01*
X187527392Y-102595000D01*
X187527391Y-102595000D01*
X187487609Y-102595000D01*
X187487607Y-102595000D01*
X187450854Y-102610224D01*
X187422724Y-102638354D01*
X187407500Y-102675107D01*
X160500500Y-102675107D01*
X160500500Y-76048848D01*
X162439499Y-76048848D01*
X162470257Y-76203471D01*
X162470264Y-76203502D01*
X162530598Y-76349165D01*
X162530603Y-76349174D01*
X162530613Y-76349191D01*
X162618211Y-76480290D01*
X162618212Y-76480291D01*
X162618217Y-76480297D01*
X162729701Y-76591781D01*
X162729707Y-76591786D01*
X162729711Y-76591789D01*
X162860814Y-76679390D01*
X162860827Y-76679397D01*
X163006498Y-76739735D01*
X163006503Y-76739737D01*
X163153513Y-76768979D01*
X163156247Y-76769703D01*
X163161155Y-76770500D01*
X163161156Y-76770500D01*
X163161158Y-76770500D01*
X180749230Y-76770500D01*
X180784162Y-76775521D01*
X180809406Y-76782934D01*
X180862152Y-76814230D01*
X182849701Y-78801781D01*
X182849707Y-78801786D01*
X182849711Y-78801789D01*
X182980814Y-78889390D01*
X182980827Y-78889397D01*
X183123618Y-78948542D01*
X183126503Y-78949737D01*
X183274545Y-78979184D01*
X183275563Y-78979405D01*
X183275982Y-78979633D01*
X183276247Y-78979703D01*
X183281155Y-78980500D01*
X183281156Y-78980500D01*
X183281158Y-78980500D01*
X183438842Y-78980500D01*
X185797671Y-78980500D01*
X185832606Y-78985523D01*
X185847604Y-78989927D01*
X185906355Y-79027672D01*
X185906379Y-79027700D01*
X185906382Y-79027702D01*
X185906383Y-79027704D01*
X185907542Y-79029041D01*
X185935018Y-79083902D01*
X185936663Y-79091460D01*
X185939500Y-79117831D01*
X185939500Y-86499230D01*
X185939499Y-86499232D01*
X185939500Y-86499233D01*
X185934476Y-86534167D01*
X185927064Y-86559408D01*
X185895769Y-86612152D01*
X185686764Y-86821158D01*
X185499711Y-87008211D01*
X185443960Y-87063962D01*
X185388209Y-87119712D01*
X185388205Y-87119716D01*
X185300613Y-87250807D01*
X185300603Y-87250824D01*
X185300598Y-87250833D01*
X185240264Y-87396496D01*
X185240257Y-87396527D01*
X185209500Y-87551150D01*
X185209500Y-87551153D01*
X185209500Y-95933846D01*
X185209500Y-95933848D01*
X185209499Y-95933848D01*
X185240257Y-96088471D01*
X185240264Y-96088502D01*
X185300598Y-96234165D01*
X185300603Y-96234174D01*
X185300613Y-96234191D01*
X185388211Y-96365290D01*
X185388212Y-96365291D01*
X185388217Y-96365297D01*
X185499701Y-96476781D01*
X185499707Y-96476786D01*
X185499711Y-96476789D01*
X185630814Y-96564390D01*
X185630827Y-96564397D01*
X185776498Y-96624735D01*
X185776503Y-96624737D01*
X185931153Y-96655499D01*
X185931156Y-96655500D01*
X185931158Y-96655500D01*
X186088844Y-96655500D01*
X186088845Y-96655499D01*
X186243497Y-96624737D01*
X186389179Y-96564394D01*
X186520289Y-96476789D01*
X186631789Y-96365289D01*
X186719394Y-96234179D01*
X186779737Y-96088497D01*
X186810500Y-95933842D01*
X186810500Y-91221158D01*
X186810500Y-88030769D01*
X186815522Y-87995836D01*
X186822934Y-87970591D01*
X186854228Y-87917849D01*
X187361786Y-87410292D01*
X187361789Y-87410289D01*
X187449394Y-87279179D01*
X187509737Y-87133497D01*
X187540500Y-86978842D01*
X187540500Y-86821158D01*
X187540500Y-84785008D01*
X203789237Y-84785008D01*
X203822376Y-84951602D01*
X203822377Y-84951608D01*
X203822384Y-84951629D01*
X203877065Y-85083644D01*
X203877070Y-85083654D01*
X203956468Y-85202480D01*
X203956469Y-85202481D01*
X203956474Y-85202487D01*
X204057511Y-85303524D01*
X204057517Y-85303529D01*
X204057521Y-85303532D01*
X204176340Y-85382925D01*
X204176346Y-85382928D01*
X204176347Y-85382929D01*
X204303423Y-85435566D01*
X204303949Y-85435790D01*
X204304127Y-85435937D01*
X204307179Y-85437380D01*
X204448539Y-85465500D01*
X204448542Y-85465500D01*
X204448545Y-85465500D01*
X204591457Y-85465500D01*
X204685751Y-85446742D01*
X204731620Y-85437619D01*
X204863653Y-85382929D01*
X204982479Y-85303532D01*
X205083532Y-85202479D01*
X205162929Y-85083653D01*
X205217619Y-84951620D01*
X205245500Y-84811455D01*
X205245500Y-81473547D01*
X205245500Y-81473544D01*
X205245500Y-81473541D01*
X205217410Y-81332331D01*
X205215790Y-81328951D01*
X205215566Y-81328425D01*
X205162929Y-81201349D01*
X205162928Y-81201348D01*
X205162925Y-81201342D01*
X205083532Y-81082523D01*
X205083529Y-81082519D01*
X205083524Y-81082513D01*
X204982487Y-80981476D01*
X204982481Y-80981471D01*
X204982480Y-80981470D01*
X204921910Y-80940998D01*
X204863653Y-80902072D01*
X204863654Y-80902072D01*
X204863644Y-80902067D01*
X204738198Y-80850107D01*
X205870000Y-80850107D01*
X205870000Y-80889892D01*
X205875047Y-80902076D01*
X205885224Y-80926645D01*
X205913355Y-80954776D01*
X205950109Y-80970000D01*
X205989889Y-80970000D01*
X205989891Y-80970000D01*
X206026645Y-80954776D01*
X206054776Y-80926645D01*
X206070000Y-80889891D01*
X206070000Y-80850109D01*
X206054776Y-80813355D01*
X206026645Y-80785224D01*
X205989892Y-80770000D01*
X205989891Y-80770000D01*
X205950109Y-80770000D01*
X205950107Y-80770000D01*
X205913354Y-80785224D01*
X205885224Y-80813354D01*
X205870000Y-80850107D01*
X204738198Y-80850107D01*
X204731629Y-80847386D01*
X204731609Y-80847379D01*
X204731601Y-80847377D01*
X204652648Y-80831673D01*
X204590737Y-80799288D01*
X204589158Y-80797737D01*
X204576645Y-80785224D01*
X204539892Y-80770000D01*
X204539891Y-80770000D01*
X204500109Y-80770000D01*
X204500107Y-80770000D01*
X204463354Y-80785224D01*
X204463352Y-80785225D01*
X204450839Y-80797739D01*
X204389515Y-80831223D01*
X204387351Y-80831673D01*
X204308397Y-80847377D01*
X204308389Y-80847379D01*
X204308369Y-80847386D01*
X204176354Y-80902067D01*
X204176344Y-80902072D01*
X204057518Y-80981470D01*
X204057517Y-80981471D01*
X204057511Y-80981476D01*
X203956474Y-81082513D01*
X203956469Y-81082519D01*
X203956468Y-81082520D01*
X203877070Y-81201346D01*
X203877065Y-81201356D01*
X203822384Y-81333371D01*
X203822377Y-81333391D01*
X203822375Y-81333399D01*
X203794500Y-81473539D01*
X203794500Y-84767088D01*
X203789237Y-84785008D01*
X187540500Y-84785008D01*
X187540500Y-80850107D01*
X202970000Y-80850107D01*
X202970000Y-80889892D01*
X202975047Y-80902076D01*
X202985224Y-80926645D01*
X203013355Y-80954776D01*
X203050109Y-80970000D01*
X203089889Y-80970000D01*
X203089891Y-80970000D01*
X203126645Y-80954776D01*
X203154776Y-80926645D01*
X203170000Y-80889891D01*
X203170000Y-80850109D01*
X203154776Y-80813355D01*
X203126645Y-80785224D01*
X203089892Y-80770000D01*
X203089891Y-80770000D01*
X203050109Y-80770000D01*
X203050107Y-80770000D01*
X203013354Y-80785224D01*
X202985224Y-80813354D01*
X202970000Y-80850107D01*
X187540500Y-80850107D01*
X187540500Y-79122329D01*
X187542320Y-79109674D01*
X187545523Y-79087393D01*
X187546966Y-79082481D01*
X187549927Y-79072394D01*
X187587672Y-79013644D01*
X187587700Y-79013619D01*
X187587699Y-79013619D01*
X187589041Y-79012456D01*
X187643920Y-78984977D01*
X187651479Y-78983333D01*
X187677832Y-78980500D01*
X189152964Y-78980500D01*
X189160814Y-78978118D01*
X189303497Y-78949737D01*
X189449179Y-78889394D01*
X189580289Y-78801789D01*
X189705738Y-78676340D01*
X189717070Y-78665008D01*
X198199237Y-78665008D01*
X198232376Y-78831602D01*
X198232377Y-78831608D01*
X198232384Y-78831629D01*
X198287065Y-78963644D01*
X198287070Y-78963654D01*
X198366468Y-79082480D01*
X198366469Y-79082481D01*
X198366474Y-79082487D01*
X198467515Y-79183528D01*
X198467518Y-79183530D01*
X198467521Y-79183532D01*
X198586340Y-79262925D01*
X198586346Y-79262928D01*
X198586347Y-79262929D01*
X198713423Y-79315566D01*
X198713949Y-79315790D01*
X198714127Y-79315937D01*
X198717179Y-79317380D01*
X198858539Y-79345500D01*
X198858542Y-79345500D01*
X198858545Y-79345500D01*
X202456455Y-79345500D01*
X202550749Y-79326742D01*
X202596618Y-79317619D01*
X202717065Y-79267727D01*
X202720477Y-79266543D01*
X202724578Y-79266343D01*
X202747894Y-79260391D01*
X202768760Y-79258147D01*
X202828455Y-79266461D01*
X202834702Y-79268985D01*
X202857161Y-79280864D01*
X202869673Y-79289226D01*
X202902498Y-79295454D01*
X202953205Y-79343521D01*
X202970000Y-79405835D01*
X202970000Y-79439891D01*
X202985224Y-79476645D01*
X203013355Y-79504776D01*
X203050109Y-79520000D01*
X203089889Y-79520000D01*
X203089891Y-79520000D01*
X203126645Y-79504776D01*
X203154776Y-79476645D01*
X203170000Y-79439891D01*
X203170000Y-79400109D01*
X203169999Y-79400107D01*
X204420000Y-79400107D01*
X204420000Y-79400109D01*
X204420000Y-79439891D01*
X204435224Y-79476645D01*
X204463355Y-79504776D01*
X204500109Y-79520000D01*
X204539889Y-79520000D01*
X204539891Y-79520000D01*
X204576645Y-79504776D01*
X204604776Y-79476645D01*
X204620000Y-79439891D01*
X204620000Y-79400109D01*
X205870000Y-79400109D01*
X205870000Y-79439891D01*
X205885224Y-79476645D01*
X205913355Y-79504776D01*
X205950109Y-79520000D01*
X205989889Y-79520000D01*
X205989891Y-79520000D01*
X206004628Y-79513895D01*
X206016317Y-79512638D01*
X206026686Y-79507083D01*
X206050420Y-79508970D01*
X206074093Y-79506424D01*
X206086377Y-79511829D01*
X206096336Y-79512621D01*
X206113570Y-79523793D01*
X206127178Y-79529781D01*
X206133844Y-79534854D01*
X206182519Y-79583529D01*
X206182523Y-79583532D01*
X206301342Y-79662925D01*
X206301348Y-79662928D01*
X206301349Y-79662929D01*
X206427777Y-79715297D01*
X206432181Y-79717380D01*
X206573541Y-79745500D01*
X206573544Y-79745500D01*
X206573547Y-79745500D01*
X209861457Y-79745500D01*
X209955751Y-79726742D01*
X210001620Y-79717619D01*
X210133653Y-79662929D01*
X210252479Y-79583532D01*
X210353532Y-79482479D01*
X210432929Y-79363653D01*
X210487619Y-79231620D01*
X210495133Y-79193846D01*
X210497185Y-79183530D01*
X210497185Y-79183528D01*
X210501845Y-79160105D01*
X210511876Y-79109674D01*
X210515500Y-79091458D01*
X210515500Y-78948539D01*
X210487410Y-78807329D01*
X210485790Y-78803949D01*
X210485566Y-78803423D01*
X210432929Y-78676347D01*
X210432928Y-78676346D01*
X210432925Y-78676340D01*
X210353532Y-78557521D01*
X210353529Y-78557517D01*
X210353524Y-78557511D01*
X210252487Y-78456474D01*
X210252481Y-78456469D01*
X210252480Y-78456468D01*
X210133653Y-78377070D01*
X210133654Y-78377070D01*
X210133644Y-78377065D01*
X210001629Y-78322384D01*
X210001609Y-78322377D01*
X210001601Y-78322375D01*
X209861460Y-78294500D01*
X209861457Y-78294500D01*
X209861455Y-78294500D01*
X206573547Y-78294500D01*
X206573545Y-78294500D01*
X206573540Y-78294500D01*
X206433399Y-78322375D01*
X206433391Y-78322377D01*
X206433371Y-78322384D01*
X206301356Y-78377065D01*
X206301346Y-78377070D01*
X206182520Y-78456468D01*
X206182519Y-78456469D01*
X206182513Y-78456474D01*
X206081476Y-78557511D01*
X206081471Y-78557517D01*
X206081470Y-78557518D01*
X206002076Y-78676340D01*
X206002072Y-78676344D01*
X206002067Y-78676354D01*
X205947386Y-78808369D01*
X205947379Y-78808389D01*
X205947377Y-78808397D01*
X205919502Y-78948537D01*
X205919502Y-79047088D01*
X205914239Y-79065009D01*
X205945994Y-79224648D01*
X205943662Y-79250703D01*
X205945178Y-79276824D01*
X205940171Y-79289713D01*
X205939767Y-79294239D01*
X205936446Y-79299306D01*
X205932400Y-79309724D01*
X205919450Y-79332699D01*
X205913355Y-79335224D01*
X205885224Y-79363355D01*
X205870000Y-79400109D01*
X204620000Y-79400109D01*
X204604776Y-79363355D01*
X204576645Y-79335224D01*
X204539892Y-79320000D01*
X204539891Y-79320000D01*
X204500109Y-79320000D01*
X204500107Y-79320000D01*
X204463354Y-79335224D01*
X204435224Y-79363354D01*
X204420000Y-79400107D01*
X203169999Y-79400107D01*
X203154776Y-79363355D01*
X203126645Y-79335224D01*
X203089892Y-79320000D01*
X203089891Y-79320000D01*
X203064280Y-79320000D01*
X203039959Y-79312858D01*
X203014812Y-79309705D01*
X203007002Y-79303181D01*
X202997241Y-79300315D01*
X202980645Y-79281163D01*
X202961191Y-79264911D01*
X202954561Y-79251059D01*
X202951486Y-79247511D01*
X202945953Y-79233076D01*
X202933661Y-79193846D01*
X202931900Y-79125871D01*
X202934383Y-79116221D01*
X202951366Y-79078234D01*
X203027927Y-78963653D01*
X203082617Y-78831620D01*
X203110498Y-78691455D01*
X203110498Y-78548545D01*
X203110498Y-78548542D01*
X203110498Y-78548539D01*
X203082408Y-78407329D01*
X203080788Y-78403949D01*
X203080564Y-78403423D01*
X203027927Y-78276347D01*
X203027926Y-78276346D01*
X203027923Y-78276340D01*
X203016598Y-78259391D01*
X202995719Y-78192717D01*
X203014202Y-78125336D01*
X203066179Y-78078645D01*
X203080637Y-78073832D01*
X203089888Y-78070000D01*
X203089891Y-78070000D01*
X203126645Y-78054776D01*
X203154776Y-78026645D01*
X203170000Y-77989891D01*
X203170000Y-77950109D01*
X203169999Y-77950107D01*
X204420000Y-77950107D01*
X204420000Y-77989892D01*
X204432678Y-78020498D01*
X204435224Y-78026645D01*
X204463355Y-78054776D01*
X204500109Y-78070000D01*
X204539889Y-78070000D01*
X204539891Y-78070000D01*
X204576645Y-78054776D01*
X204604776Y-78026645D01*
X204620000Y-77989891D01*
X204620000Y-77950109D01*
X204604776Y-77913355D01*
X204576645Y-77885224D01*
X204539892Y-77870000D01*
X204539891Y-77870000D01*
X204500109Y-77870000D01*
X204500107Y-77870000D01*
X204463354Y-77885224D01*
X204435224Y-77913354D01*
X204420000Y-77950107D01*
X203169999Y-77950107D01*
X203154776Y-77913355D01*
X203126645Y-77885224D01*
X203089892Y-77870000D01*
X203089891Y-77870000D01*
X203050109Y-77870000D01*
X203050107Y-77870000D01*
X203013354Y-77885224D01*
X202985225Y-77913353D01*
X202985223Y-77913356D01*
X202966755Y-77957941D01*
X202922913Y-78012343D01*
X202856619Y-78034407D01*
X202788920Y-78017127D01*
X202783304Y-78013588D01*
X202728651Y-77977070D01*
X202728652Y-77977070D01*
X202728642Y-77977065D01*
X202596627Y-77922384D01*
X202596607Y-77922377D01*
X202596599Y-77922375D01*
X202456458Y-77894500D01*
X202456455Y-77894500D01*
X202456453Y-77894500D01*
X198858545Y-77894500D01*
X198858543Y-77894500D01*
X198858538Y-77894500D01*
X198718397Y-77922375D01*
X198718389Y-77922377D01*
X198718369Y-77922384D01*
X198586354Y-77977065D01*
X198586344Y-77977070D01*
X198467518Y-78056468D01*
X198467517Y-78056469D01*
X198467511Y-78056474D01*
X198366474Y-78157511D01*
X198366469Y-78157517D01*
X198366468Y-78157518D01*
X198287070Y-78276344D01*
X198287065Y-78276354D01*
X198232384Y-78408369D01*
X198232377Y-78408389D01*
X198232375Y-78408397D01*
X198204500Y-78548537D01*
X198204500Y-78647088D01*
X198199237Y-78665008D01*
X189717070Y-78665008D01*
X189927307Y-78454772D01*
X191042072Y-77340006D01*
X205309237Y-77340006D01*
X205342376Y-77506600D01*
X205342377Y-77506606D01*
X205342384Y-77506627D01*
X205397065Y-77638642D01*
X205397070Y-77638652D01*
X205476468Y-77757478D01*
X205476469Y-77757479D01*
X205476474Y-77757485D01*
X205577511Y-77858522D01*
X205577517Y-77858527D01*
X205577521Y-77858530D01*
X205696340Y-77937923D01*
X205696346Y-77937926D01*
X205696347Y-77937927D01*
X205823423Y-77990564D01*
X205823949Y-77990788D01*
X205824127Y-77990935D01*
X205833776Y-77995499D01*
X205844614Y-78001293D01*
X205843551Y-78003280D01*
X205881867Y-78023317D01*
X205883457Y-78024879D01*
X205906570Y-78047991D01*
X205913355Y-78054776D01*
X205950109Y-78070000D01*
X205989889Y-78070000D01*
X205989891Y-78070000D01*
X206026645Y-78054776D01*
X206026648Y-78054772D01*
X206036799Y-78047991D01*
X206037859Y-78049578D01*
X206085927Y-78023332D01*
X206090355Y-78022453D01*
X206101235Y-78020498D01*
X206111457Y-78020498D01*
X206205751Y-78001740D01*
X206251620Y-77992617D01*
X206383653Y-77937927D01*
X206502479Y-77858530D01*
X206603532Y-77757477D01*
X206682929Y-77638651D01*
X206737619Y-77506618D01*
X206762905Y-77379500D01*
X206765500Y-77366455D01*
X206765500Y-73368542D01*
X206765500Y-73368539D01*
X206737410Y-73227329D01*
X206735790Y-73223949D01*
X206735566Y-73223423D01*
X206682929Y-73096347D01*
X206682928Y-73096346D01*
X206682925Y-73096340D01*
X206603532Y-72977521D01*
X206603529Y-72977517D01*
X206603524Y-72977511D01*
X206502487Y-72876474D01*
X206502481Y-72876469D01*
X206502480Y-72876468D01*
X206383653Y-72797070D01*
X206383654Y-72797070D01*
X206383644Y-72797065D01*
X206251629Y-72742384D01*
X206251609Y-72742377D01*
X206251601Y-72742375D01*
X206111460Y-72714500D01*
X206111457Y-72714500D01*
X206111455Y-72714500D01*
X205968545Y-72714500D01*
X205968543Y-72714500D01*
X205968538Y-72714500D01*
X205828397Y-72742375D01*
X205828389Y-72742377D01*
X205828369Y-72742384D01*
X205696354Y-72797065D01*
X205696344Y-72797070D01*
X205577518Y-72876468D01*
X205577517Y-72876469D01*
X205577511Y-72876474D01*
X205476474Y-72977511D01*
X205476469Y-72977517D01*
X205476468Y-72977518D01*
X205397070Y-73096344D01*
X205397065Y-73096354D01*
X205342384Y-73228369D01*
X205342377Y-73228389D01*
X205342375Y-73228397D01*
X205314500Y-73368537D01*
X205314500Y-77322086D01*
X205309237Y-77340006D01*
X191042072Y-77340006D01*
X193387659Y-74994418D01*
X193415904Y-74973275D01*
X193438996Y-74960667D01*
X193498421Y-74945500D01*
X197917964Y-74945500D01*
X197925814Y-74943118D01*
X198068497Y-74914737D01*
X198214179Y-74854394D01*
X198345289Y-74766789D01*
X198456789Y-74655289D01*
X198544394Y-74524179D01*
X198604737Y-74378497D01*
X198635500Y-74223842D01*
X198635500Y-74066158D01*
X198635500Y-74066155D01*
X198635500Y-74065973D01*
X198635065Y-74063972D01*
X198605397Y-73914824D01*
X198604994Y-73912467D01*
X198604738Y-73911508D01*
X198604737Y-73911506D01*
X198604737Y-73911503D01*
X198604735Y-73911498D01*
X198544397Y-73765827D01*
X198544390Y-73765814D01*
X198456789Y-73634711D01*
X198456786Y-73634707D01*
X198456781Y-73634701D01*
X198345297Y-73523217D01*
X198345291Y-73523212D01*
X198345290Y-73523211D01*
X198259002Y-73465555D01*
X198214191Y-73435613D01*
X198214190Y-73435612D01*
X198214185Y-73435609D01*
X198214172Y-73435602D01*
X198214165Y-73435598D01*
X198068502Y-73375264D01*
X198068471Y-73375257D01*
X197913847Y-73344500D01*
X197913845Y-73344500D01*
X197913842Y-73344500D01*
X193183843Y-73344500D01*
X193026158Y-73344500D01*
X193026153Y-73344500D01*
X193026148Y-73344500D01*
X192871535Y-73375254D01*
X192871502Y-73375262D01*
X192725818Y-73435606D01*
X192725816Y-73435607D01*
X192594708Y-73523211D01*
X192594707Y-73523212D01*
X192594701Y-73523217D01*
X188787348Y-77330573D01*
X188759097Y-77351722D01*
X188736009Y-77364330D01*
X188676579Y-77379500D01*
X183760770Y-77379500D01*
X183725834Y-77374477D01*
X183700592Y-77367065D01*
X183647847Y-77335769D01*
X181660297Y-75348217D01*
X181660291Y-75348212D01*
X181660290Y-75348211D01*
X181529191Y-75260613D01*
X181529190Y-75260612D01*
X181529185Y-75260609D01*
X181529172Y-75260602D01*
X181529165Y-75260598D01*
X181383502Y-75200264D01*
X181383471Y-75200257D01*
X181228847Y-75169500D01*
X181228845Y-75169500D01*
X181228842Y-75169500D01*
X163161158Y-75169500D01*
X163161155Y-75169500D01*
X163161153Y-75169500D01*
X163006527Y-75200257D01*
X163006496Y-75200264D01*
X162860833Y-75260598D01*
X162860824Y-75260603D01*
X162860807Y-75260613D01*
X162729708Y-75348211D01*
X162729707Y-75348212D01*
X162729701Y-75348217D01*
X162618217Y-75459701D01*
X162618212Y-75459707D01*
X162618211Y-75459708D01*
X162530613Y-75590807D01*
X162530603Y-75590824D01*
X162530598Y-75590833D01*
X162470264Y-75736496D01*
X162470257Y-75736527D01*
X162439500Y-75891150D01*
X162439500Y-75891153D01*
X162439500Y-76048846D01*
X162439500Y-76048848D01*
X162439499Y-76048848D01*
X160500500Y-76048848D01*
X160500500Y-59824001D01*
X205244500Y-59824001D01*
X205244500Y-67176002D01*
X205247396Y-67230035D01*
X205247396Y-67230036D01*
X205282976Y-67369440D01*
X205282978Y-67369447D01*
X205304653Y-67421774D01*
X205356445Y-67516625D01*
X205454490Y-67621931D01*
X205578223Y-67695345D01*
X205578226Y-67695346D01*
X205578229Y-67695348D01*
X205630555Y-67717022D01*
X205681584Y-67735024D01*
X205824000Y-67755500D01*
X205824003Y-67755500D01*
X211176000Y-67755500D01*
X211176002Y-67755500D01*
X211181499Y-67755205D01*
X211230034Y-67752604D01*
X211369445Y-67717022D01*
X211421771Y-67695348D01*
X211516625Y-67643554D01*
X211621930Y-67545511D01*
X211695348Y-67421771D01*
X211717022Y-67369445D01*
X211735024Y-67318416D01*
X211755500Y-67176000D01*
X211755500Y-59824000D01*
X211752604Y-59769966D01*
X211717022Y-59630555D01*
X211717018Y-59630546D01*
X211695346Y-59578225D01*
X211643554Y-59483374D01*
X211545509Y-59378068D01*
X211421776Y-59304654D01*
X211369453Y-59282981D01*
X211369447Y-59282979D01*
X211369445Y-59282978D01*
X211318416Y-59264976D01*
X211318414Y-59264975D01*
X211318412Y-59264975D01*
X211233477Y-59252763D01*
X211176000Y-59244500D01*
X211175998Y-59244500D01*
X205823998Y-59244500D01*
X205769964Y-59247396D01*
X205769963Y-59247396D01*
X205630559Y-59282976D01*
X205630552Y-59282978D01*
X205578225Y-59304653D01*
X205483374Y-59356445D01*
X205378068Y-59454490D01*
X205304654Y-59578223D01*
X205282981Y-59630546D01*
X205264975Y-59681587D01*
X205252269Y-59769963D01*
X205244501Y-59823997D01*
X205244500Y-59824001D01*
X160500500Y-59824001D01*
X160500500Y-54813296D01*
X161199500Y-54813296D01*
X161199500Y-55186703D01*
X161227322Y-55469190D01*
X161236100Y-55558317D01*
X161236102Y-55558332D01*
X161308949Y-55924552D01*
X161417346Y-56281894D01*
X161417347Y-56281895D01*
X161560243Y-56626876D01*
X161560250Y-56626890D01*
X161736264Y-56956192D01*
X161736273Y-56956207D01*
X161943726Y-57266681D01*
X161943736Y-57266695D01*
X162180627Y-57555348D01*
X162444650Y-57819371D01*
X162444655Y-57819375D01*
X162444656Y-57819376D01*
X162733309Y-58056267D01*
X162733315Y-58056271D01*
X163043796Y-58263729D01*
X163373117Y-58439754D01*
X163718106Y-58582653D01*
X164075440Y-58691049D01*
X164441678Y-58763899D01*
X164813293Y-58800500D01*
X164813296Y-58800500D01*
X165186704Y-58800500D01*
X165186707Y-58800500D01*
X165558322Y-58763899D01*
X165924560Y-58691049D01*
X166281894Y-58582653D01*
X166626883Y-58439754D01*
X166956204Y-58263729D01*
X167266685Y-58056271D01*
X167555338Y-57819381D01*
X167819381Y-57555338D01*
X168056271Y-57266685D01*
X168263729Y-56956204D01*
X168439754Y-56626883D01*
X168582653Y-56281894D01*
X168691049Y-55924560D01*
X168763899Y-55558322D01*
X168800500Y-55186707D01*
X168800500Y-54922459D01*
X198844000Y-54922459D01*
X198844000Y-54945000D01*
X198946000Y-54945000D01*
X199013039Y-54964685D01*
X199058794Y-55017489D01*
X199070000Y-55069000D01*
X199070000Y-55321000D01*
X199050315Y-55388039D01*
X198997511Y-55433794D01*
X198946000Y-55445000D01*
X198844000Y-55445000D01*
X198844000Y-55467540D01*
X198868323Y-55558317D01*
X198881550Y-55607682D01*
X198881551Y-55607684D01*
X198954083Y-55733310D01*
X198954092Y-55733324D01*
X198954096Y-55733329D01*
X199056669Y-55835902D01*
X199056674Y-55835906D01*
X199056675Y-55835907D01*
X199056681Y-55835911D01*
X199145000Y-55886903D01*
X199145000Y-55886902D01*
X199145000Y-55826076D01*
X199164685Y-55759037D01*
X199217489Y-55713282D01*
X199286647Y-55703338D01*
X199301084Y-55706299D01*
X199352213Y-55720000D01*
X199437786Y-55720000D01*
X199437787Y-55720000D01*
X199488906Y-55706302D01*
X199558754Y-55707963D01*
X199616617Y-55747124D01*
X199644123Y-55811352D01*
X199645000Y-55826076D01*
X199645000Y-55886902D01*
X199733313Y-55835914D01*
X199733314Y-55835913D01*
X199733318Y-55835911D01*
X199733324Y-55835907D01*
X199835907Y-55733324D01*
X199835909Y-55733321D01*
X199908450Y-55607679D01*
X199943896Y-55475385D01*
X199946000Y-55469190D01*
X199946000Y-55445000D01*
X199844000Y-55445000D01*
X199776961Y-55425315D01*
X199731206Y-55372511D01*
X199720000Y-55321000D01*
X199720000Y-55069000D01*
X199739685Y-55001961D01*
X199792489Y-54956206D01*
X199844000Y-54945000D01*
X199946000Y-54945000D01*
X199946000Y-54927041D01*
X199946000Y-54922461D01*
X199945999Y-54922459D01*
X203684000Y-54922459D01*
X203684000Y-54945000D01*
X203786000Y-54945000D01*
X203853039Y-54964685D01*
X203898794Y-55017489D01*
X203910000Y-55069000D01*
X203910000Y-55321000D01*
X203890315Y-55388039D01*
X203837511Y-55433794D01*
X203786000Y-55445000D01*
X203684000Y-55445000D01*
X203684000Y-55467540D01*
X203708323Y-55558317D01*
X203721550Y-55607682D01*
X203721551Y-55607684D01*
X203794083Y-55733310D01*
X203794092Y-55733324D01*
X203794096Y-55733329D01*
X203896669Y-55835902D01*
X203896674Y-55835906D01*
X203896675Y-55835907D01*
X203896681Y-55835911D01*
X203985000Y-55886903D01*
X203985000Y-55886902D01*
X203985000Y-55826076D01*
X204004685Y-55759037D01*
X204057489Y-55713282D01*
X204126647Y-55703338D01*
X204141084Y-55706299D01*
X204192213Y-55720000D01*
X204277786Y-55720000D01*
X204277787Y-55720000D01*
X204328906Y-55706302D01*
X204398754Y-55707963D01*
X204456617Y-55747124D01*
X204484123Y-55811352D01*
X204485000Y-55826076D01*
X204485000Y-55886902D01*
X204573313Y-55835914D01*
X204573314Y-55835913D01*
X204573318Y-55835911D01*
X204573324Y-55835907D01*
X204675907Y-55733324D01*
X204675909Y-55733321D01*
X204748450Y-55607679D01*
X204783896Y-55475385D01*
X204786000Y-55469190D01*
X204786000Y-55445000D01*
X204684000Y-55445000D01*
X204616961Y-55425315D01*
X204571206Y-55372511D01*
X204560000Y-55321000D01*
X204560000Y-55069000D01*
X204579685Y-55001961D01*
X204632489Y-54956206D01*
X204684000Y-54945000D01*
X204786000Y-54945000D01*
X204786000Y-54922459D01*
X204783773Y-54913029D01*
X204782748Y-54910327D01*
X204748450Y-54782320D01*
X204748447Y-54782314D01*
X204675913Y-54656684D01*
X204675911Y-54656681D01*
X204675909Y-54656678D01*
X204662104Y-54642873D01*
X204573326Y-54554093D01*
X204573317Y-54554086D01*
X204485001Y-54503095D01*
X204485000Y-54503096D01*
X204485000Y-54563923D01*
X204465315Y-54630962D01*
X204412511Y-54676717D01*
X204343353Y-54686661D01*
X204328908Y-54683698D01*
X204277787Y-54670000D01*
X204277785Y-54670000D01*
X204192215Y-54670000D01*
X204192213Y-54670000D01*
X204141093Y-54683697D01*
X204071244Y-54682035D01*
X204013382Y-54642873D01*
X203985877Y-54578645D01*
X203985000Y-54563923D01*
X203985000Y-54503096D01*
X203896672Y-54554093D01*
X203794093Y-54656674D01*
X203794085Y-54656684D01*
X203721551Y-54782314D01*
X203721550Y-54782316D01*
X203713250Y-54813293D01*
X203684000Y-54922459D01*
X199945999Y-54922459D01*
X199908450Y-54782320D01*
X199908447Y-54782314D01*
X199835913Y-54656684D01*
X199835911Y-54656681D01*
X199835909Y-54656678D01*
X199822104Y-54642873D01*
X199733326Y-54554093D01*
X199733317Y-54554086D01*
X199645001Y-54503095D01*
X199645000Y-54503096D01*
X199645000Y-54563923D01*
X199625315Y-54630962D01*
X199572511Y-54676717D01*
X199503353Y-54686661D01*
X199488908Y-54683698D01*
X199437787Y-54670000D01*
X199437785Y-54670000D01*
X199352215Y-54670000D01*
X199352213Y-54670000D01*
X199301093Y-54683697D01*
X199231244Y-54682035D01*
X199173382Y-54642873D01*
X199145877Y-54578645D01*
X199145000Y-54563923D01*
X199145000Y-54503096D01*
X199056672Y-54554093D01*
X198954093Y-54656674D01*
X198954085Y-54656684D01*
X198881551Y-54782314D01*
X198881550Y-54782316D01*
X198873250Y-54813293D01*
X198844000Y-54922459D01*
X168800500Y-54922459D01*
X168800500Y-54813293D01*
X168763899Y-54441678D01*
X168691049Y-54075440D01*
X168582653Y-53718106D01*
X168439754Y-53373117D01*
X168263729Y-53043796D01*
X168056271Y-52733315D01*
X168056267Y-52733309D01*
X168056262Y-52733303D01*
X167856865Y-52490336D01*
X167856864Y-52490335D01*
X167819371Y-52444650D01*
X167555348Y-52180627D01*
X167425645Y-52074183D01*
X167268233Y-51944998D01*
X198410673Y-51944998D01*
X198410674Y-51944999D01*
X198410675Y-51945000D01*
X198611000Y-51945000D01*
X198678039Y-51964685D01*
X198723794Y-52017489D01*
X198735000Y-52069000D01*
X198735000Y-52321000D01*
X198715315Y-52388039D01*
X198662511Y-52433794D01*
X198611000Y-52445000D01*
X198410674Y-52445000D01*
X198434972Y-52567155D01*
X198434980Y-52567189D01*
X198485926Y-52690185D01*
X198485934Y-52690203D01*
X198485943Y-52690218D01*
X198559916Y-52800926D01*
X198559917Y-52800927D01*
X198559922Y-52800933D01*
X198654066Y-52895077D01*
X198654071Y-52895081D01*
X198654079Y-52895087D01*
X198764783Y-52969057D01*
X198764786Y-52969058D01*
X198764788Y-52969060D01*
X198764796Y-52969065D01*
X198764801Y-52969067D01*
X198834996Y-52998143D01*
X198834997Y-52998143D01*
X198834999Y-52998144D01*
X198835000Y-52998144D01*
X198835000Y-52998143D01*
X198835000Y-52901958D01*
X198854685Y-52834919D01*
X198907489Y-52789164D01*
X198976647Y-52779220D01*
X198991082Y-52782181D01*
X199038922Y-52795000D01*
X199131076Y-52795000D01*
X199131078Y-52795000D01*
X199178907Y-52782184D01*
X199248755Y-52783845D01*
X199306618Y-52823007D01*
X199334123Y-52887235D01*
X199335000Y-52901958D01*
X199335000Y-52998143D01*
X199335000Y-52998144D01*
X199405198Y-52969067D01*
X199405216Y-52969057D01*
X199515920Y-52895087D01*
X199515928Y-52895081D01*
X199610081Y-52800928D01*
X199610084Y-52800924D01*
X199684060Y-52690212D01*
X199684067Y-52690199D01*
X199735020Y-52567185D01*
X199735023Y-52567173D01*
X199759325Y-52445000D01*
X199559000Y-52445000D01*
X199491961Y-52425315D01*
X199446206Y-52372511D01*
X199435000Y-52321000D01*
X199435000Y-52069000D01*
X199454685Y-52001961D01*
X199507489Y-51956206D01*
X199559000Y-51945000D01*
X199759325Y-51945000D01*
X199759325Y-51944998D01*
X203870673Y-51944998D01*
X203870674Y-51944999D01*
X203870675Y-51945000D01*
X204071000Y-51945000D01*
X204138039Y-51964685D01*
X204183794Y-52017489D01*
X204195000Y-52069000D01*
X204195000Y-52321000D01*
X204175315Y-52388039D01*
X204122511Y-52433794D01*
X204071000Y-52445000D01*
X203870674Y-52445000D01*
X203894972Y-52567155D01*
X203894980Y-52567189D01*
X203945926Y-52690185D01*
X203945934Y-52690203D01*
X203945943Y-52690218D01*
X204019916Y-52800926D01*
X204019917Y-52800927D01*
X204019922Y-52800933D01*
X204114066Y-52895077D01*
X204114071Y-52895081D01*
X204114079Y-52895087D01*
X204224783Y-52969057D01*
X204224786Y-52969058D01*
X204224788Y-52969060D01*
X204224796Y-52969065D01*
X204224801Y-52969067D01*
X204294996Y-52998143D01*
X204294997Y-52998143D01*
X204294999Y-52998144D01*
X204295000Y-52998144D01*
X204295000Y-52998143D01*
X204295000Y-52901958D01*
X204314685Y-52834919D01*
X204367489Y-52789164D01*
X204436647Y-52779220D01*
X204451082Y-52782181D01*
X204498922Y-52795000D01*
X204591076Y-52795000D01*
X204591078Y-52795000D01*
X204638907Y-52782184D01*
X204708755Y-52783845D01*
X204766618Y-52823007D01*
X204794123Y-52887235D01*
X204795000Y-52901958D01*
X204795000Y-52998143D01*
X204795000Y-52998144D01*
X204865198Y-52969067D01*
X204865216Y-52969057D01*
X204975920Y-52895087D01*
X204975928Y-52895081D01*
X205070081Y-52800928D01*
X205070084Y-52800924D01*
X205144060Y-52690212D01*
X205144067Y-52690199D01*
X205195020Y-52567185D01*
X205195023Y-52567173D01*
X205219325Y-52445000D01*
X205019000Y-52445000D01*
X204951961Y-52425315D01*
X204906206Y-52372511D01*
X204895000Y-52321000D01*
X204895000Y-52069000D01*
X204914685Y-52001961D01*
X204967489Y-51956206D01*
X205019000Y-51945000D01*
X205219325Y-51945000D01*
X205219325Y-51944996D01*
X205195026Y-51822843D01*
X205195023Y-51822826D01*
X205195020Y-51822814D01*
X205144067Y-51699800D01*
X205144060Y-51699787D01*
X205070084Y-51589075D01*
X205070081Y-51589071D01*
X205070076Y-51589065D01*
X204975931Y-51494920D01*
X204865200Y-51420932D01*
X204795000Y-51391855D01*
X204795000Y-51488041D01*
X204775315Y-51555080D01*
X204722511Y-51600835D01*
X204653353Y-51610779D01*
X204638911Y-51607816D01*
X204591078Y-51595000D01*
X204591077Y-51595000D01*
X204498922Y-51595000D01*
X204451092Y-51607815D01*
X204381243Y-51606153D01*
X204323381Y-51566990D01*
X204295877Y-51502762D01*
X204295000Y-51488041D01*
X204295000Y-51391855D01*
X204294999Y-51391855D01*
X204224798Y-51420933D01*
X204114067Y-51494920D01*
X204019922Y-51589065D01*
X204019917Y-51589071D01*
X204019916Y-51589072D01*
X203945943Y-51699780D01*
X203945934Y-51699795D01*
X203945926Y-51699813D01*
X203894980Y-51822809D01*
X203894972Y-51822843D01*
X203870673Y-51944998D01*
X199759325Y-51944998D01*
X199759325Y-51944996D01*
X199735026Y-51822843D01*
X199735023Y-51822826D01*
X199735020Y-51822814D01*
X199684067Y-51699800D01*
X199684060Y-51699787D01*
X199610084Y-51589075D01*
X199610081Y-51589071D01*
X199610076Y-51589065D01*
X199515931Y-51494920D01*
X199405200Y-51420932D01*
X199335000Y-51391855D01*
X199335000Y-51488041D01*
X199315315Y-51555080D01*
X199262511Y-51600835D01*
X199193353Y-51610779D01*
X199178911Y-51607816D01*
X199131078Y-51595000D01*
X199131077Y-51595000D01*
X199038922Y-51595000D01*
X198991092Y-51607815D01*
X198921243Y-51606153D01*
X198863381Y-51566990D01*
X198835877Y-51502762D01*
X198835000Y-51488041D01*
X198835000Y-51391855D01*
X198834999Y-51391855D01*
X198764798Y-51420933D01*
X198654067Y-51494920D01*
X198559922Y-51589065D01*
X198559917Y-51589071D01*
X198559916Y-51589072D01*
X198485943Y-51699780D01*
X198485934Y-51699795D01*
X198485926Y-51699813D01*
X198434980Y-51822809D01*
X198434972Y-51822843D01*
X198410673Y-51944998D01*
X167268233Y-51944998D01*
X167266695Y-51943736D01*
X167266694Y-51943735D01*
X167266690Y-51943732D01*
X166956210Y-51736275D01*
X166956209Y-51736274D01*
X166956204Y-51736271D01*
X166956199Y-51736268D01*
X166956192Y-51736264D01*
X166955408Y-51735844D01*
X166955405Y-51735843D01*
X166628447Y-51561082D01*
X166627344Y-51560472D01*
X166626890Y-51560249D01*
X166469165Y-51494917D01*
X166281902Y-51417350D01*
X166281895Y-51417347D01*
X166072119Y-51353712D01*
X166072118Y-51353711D01*
X165929169Y-51310348D01*
X165929148Y-51310342D01*
X165924560Y-51308951D01*
X165924557Y-51308950D01*
X165924556Y-51308950D01*
X165919515Y-51307947D01*
X165919494Y-51307942D01*
X165558337Y-51236103D01*
X165558326Y-51236101D01*
X165558324Y-51236101D01*
X165558311Y-51236099D01*
X165277293Y-51208422D01*
X165186707Y-51199500D01*
X165186704Y-51199500D01*
X164813296Y-51199500D01*
X164813293Y-51199500D01*
X164795537Y-51201248D01*
X164729513Y-51207750D01*
X164729514Y-51207751D01*
X164441688Y-51236099D01*
X164441679Y-51236100D01*
X164441666Y-51236102D01*
X164075446Y-51308949D01*
X163718102Y-51417347D01*
X163373123Y-51560243D01*
X163373109Y-51560250D01*
X163216784Y-51643806D01*
X163043806Y-51736264D01*
X163043791Y-51736273D01*
X162733317Y-51943726D01*
X162733303Y-51943736D01*
X162444650Y-52180627D01*
X162180627Y-52444650D01*
X161943736Y-52733303D01*
X161943728Y-52733315D01*
X161736273Y-53043791D01*
X161736264Y-53043806D01*
X161560243Y-53373123D01*
X161417347Y-53718102D01*
X161308949Y-54075446D01*
X161236102Y-54441666D01*
X161236100Y-54441681D01*
X161236099Y-54441688D01*
X161199500Y-54813296D01*
X160500500Y-54813296D01*
X160500500Y-50642329D01*
X160505523Y-50607393D01*
X160509927Y-50592395D01*
X160547672Y-50533644D01*
X160547700Y-50533619D01*
X160547699Y-50533619D01*
X160549041Y-50532456D01*
X160603920Y-50504977D01*
X160611479Y-50503333D01*
X160637832Y-50500500D01*
X219357670Y-50500500D01*
X219392606Y-50505523D01*
G37*
%TD.AperFunction*%
%TD*%
%TA.AperFunction,Conductor*%
%TO.N,+3V3*%
G36*
X211228326Y-59771674D02*
G01*
X211250000Y-59824000D01*
X211250000Y-67176000D01*
X211228326Y-67228326D01*
X211176000Y-67250000D01*
X205824000Y-67250000D01*
X205771674Y-67228326D01*
X205750000Y-67176000D01*
X205750000Y-59824000D01*
X205771674Y-59771674D01*
X205824000Y-59750000D01*
X211176000Y-59750000D01*
X211228326Y-59771674D01*
G37*
%TD.AperFunction*%
%TD*%
M02*
