M48
; DRILL file KiCad 10.0.4 date 2026-09-20T08:23:55
; FORMAT={-:-/ absolute / metric / decimal}
; #@! TF.CreationDate,2026-09-20T08:23:55+05:30
; #@! TF.GenerationSoftware,Kicad,Pcbnew,10.0.4
; #@! TF.FileFunction,Plated,1,2,PTH
FMAT,2
METRIC
; #@! TA.AperFunction,Plated,PTH,ComponentDrill
T1C0.200
; #@! TA.AperFunction,Plated,PTH,ViaDrill
T2C0.250
; #@! TA.AperFunction,Plated,PTH,ViaDrill
T3C0.300
; #@! TA.AperFunction,Plated,PTH,ComponentDrill
T4C0.650
; #@! TA.AperFunction,Plated,PTH,ComponentDrill
T5C0.700
; #@! TA.AperFunction,Plated,PTH,ComponentDrill
T6C1.000
; #@! TA.AperFunction,Plated,PTH,ComponentDrill
T7C3.200
%
G90
G05
T1
X187.507Y-102.695
X187.507Y-103.995
X187.507Y-105.295
X187.507Y-106.595
X188.808Y-102.695
X188.808Y-103.995
X188.808Y-105.295
X188.808Y-106.595
X203.07Y-77.97
X203.07Y-79.42
X203.07Y-80.87
X204.52Y-77.97
X204.52Y-79.42
X204.52Y-80.87
X205.97Y-77.97
X205.97Y-79.42
X205.97Y-80.87
T2
X198.93Y-78.62
X201.14Y-87.36
X202.385Y-78.62
X204.52Y-81.545
X204.52Y-84.74
X206.04Y-73.44
X206.04Y-77.295
X206.645Y-79.02
X209.79Y-79.02
T3
X162.74Y-96.81
X162.75Y-67.1
X163.24Y-75.97
X163.63Y-94.97
X166.07Y-64.52
X166.65Y-59.62
X168.84Y-94.39
X169.63Y-96.92
X169.75Y-107.4
X175.86Y-103.45
X179.54Y-99.04
X182.35Y-98.9
X183.27Y-56.86
X183.55Y-61.75
X183.77Y-70.37
X185.04Y-52.51
X185.47Y-97.85
X186.01Y-91.3
X186.01Y-95.855
X186.74Y-78.18
X188.39Y-97.6
X188.66Y-93.49
X191.05Y-52.45
X192.12Y-71.42
X193.92Y-68.35
X194.14Y-87.27
X194.25Y-78.66
X194.67Y-107.08
X195.19Y-75.2
X195.53Y-54.51
X195.99Y-85.3
X197.835Y-74.145
X198.2Y-90.28
X198.64Y-60.21
X200.03Y-75.04
X200.4Y-63.55
X200.82Y-91.17
X201.23Y-67.07
X204.0Y-62.1
X204.21Y-95.13
X206.06Y-107.33
X206.41Y-68.08
X207.0Y-60.5
X207.0Y-66.5
X207.23Y-54.58
X208.0Y-60.5
X208.0Y-66.5
X208.88Y-94.24
X209.0Y-60.5
X209.0Y-61.5
X209.0Y-62.5
X209.0Y-64.5
X209.0Y-65.5
X209.0Y-66.5
X209.07Y-51.98
X210.0Y-60.5
X210.0Y-61.5
X210.0Y-62.5
X210.0Y-64.5
X210.0Y-65.5
X210.0Y-66.5
X210.0Y-103.82
X210.49Y-55.08
X211.68Y-70.74
X215.8Y-71.19
X216.01Y-66.0
X216.63Y-60.53
X216.67Y-51.43
X217.97Y-57.29
X218.32Y-101.15
X218.67Y-93.12
T6
X162.47Y-107.66
X165.01Y-107.66
X214.172Y-89.16
X214.172Y-91.7
X214.172Y-94.24
X214.172Y-96.78
X214.172Y-99.32
T7
X165.0Y-55.0
X215.0Y-105.0
T4
G00X199.395Y-54.995
M15
G01X199.395Y-55.395
M16
G05
G00X204.235Y-54.995
M15
G01X204.235Y-55.395
M16
G05
T5
G00X199.085Y-51.945
M15
G01X199.085Y-52.445
M16
G05
G00X204.545Y-51.945
M15
G01X204.545Y-52.445
M16
G05
M30
